<?xml version="1.0" encoding="utf-8"?>
<!-- Generator: Adobe Illustrator 25.2.2, SVG Export Plug-In . SVG Version: 6.00 Build 0)  -->
<svg version="1.1" id="Livello_1" xmlns="http://www.w3.org/2000/svg" xmlns:xlink="http://www.w3.org/1999/xlink" x="0px" y="0px"
	 viewBox="0 0 16 16" style="enable-background:new 0 0 16 16;" xml:space="preserve">
<style type="text/css">
	.st0{fill:#9EA3A8;}
</style>
<path class="st0" d="M0,0v16h16V0H0z M8.5,12.4C5.8,12.4,4,10.5,4,8c0-2.5,1.9-4.4,4.5-4.4c2.1,0,3.2,1.2,3.2,1.2l-1,1.6
	c0,0-1-0.9-2.1-0.9C7,5.5,6.2,6.7,6.2,7.9c0,1.3,0.8,2.6,2.4,2.6c1.3,0,2.3-1.1,2.3-1.1L12,11C12,11,10.8,12.4,8.5,12.4z"/>
</svg>
