<svg version="1.1" id="Livello_1" xmlns="http://www.w3.org/2000/svg" xmlns:xlink="http://www.w3.org/1999/xlink" x="0px" y="0px"
	 viewBox="0 0 48 48" style="enable-background:new 0 0 48 48;" xml:space="preserve">
<g>
	<path d="M19.4,18.5c-1.2,0-2.2,0.4-2.8,1.2c-0.7,0.8-1,2-1,3.6v2.1c0,1.5,0.4,2.7,1,3.5s1.6,1.2,2.8,1.2c1.3,0,2.2-0.4,2.9-1.2
		c0.7-0.8,1-2,1-3.6v-2.1c0-1.5-0.4-2.7-1-3.5C21.6,18.9,20.6,18.5,19.4,18.5z M21,25.7c0,0.9-0.1,1.6-0.4,2
		c-0.2,0.4-0.6,0.6-1.2,0.6c-0.6,0-1-0.2-1.2-0.7c-0.3-0.5-0.4-1.1-0.4-2.1v-2.8c0-0.9,0.1-1.5,0.4-1.9c0.3-0.4,0.6-0.6,1.2-0.6
		c0.5,0,0.9,0.2,1.2,0.6S21,22.1,21,23V25.7z"/>
	<path d="M30.5,24.2c0.5-0.2,0.9-0.6,1.2-1s0.5-0.9,0.5-1.4c0-1-0.3-1.8-1-2.4c-0.7-0.6-1.6-0.9-2.8-0.9c-0.7,0-1.3,0.1-1.9,0.4
		s-1,0.6-1.3,1.1c-0.3,0.5-0.5,1-0.5,1.6h2.3c0-0.4,0.1-0.7,0.4-0.9c0.3-0.2,0.7-0.4,1.1-0.4c0.5,0,0.9,0.1,1.1,0.4
		c0.3,0.3,0.4,0.6,0.4,1.1c0,0.5-0.1,0.9-0.4,1.1c-0.3,0.3-0.7,0.4-1.3,0.4h-1.2v1.8h1.2c1.2,0,1.9,0.6,1.9,1.7
		c0,0.5-0.2,0.8-0.5,1.1s-0.7,0.4-1.3,0.4c-0.5,0-0.9-0.1-1.2-0.4s-0.5-0.6-0.5-1h-2.3c0,1,0.4,1.8,1.1,2.4s1.6,0.9,2.8,0.9
		c1.2,0,2.2-0.3,2.9-0.9s1.1-1.4,1.1-2.4c0-0.6-0.2-1.2-0.5-1.6S31.1,24.4,30.5,24.2z"/>
	<path d="M43.4,38c0.3-0.6,0.6-1.3,0.6-2V12c0-2.2-1.8-4-4-4H8c-2.2,0-4,1.8-4,4v24c0,0.7,0.2,1.4,0.6,2H0v2h8h32h8v-2H43.4z M8,38
		c-1.1,0-2-0.9-2-2V12c0-1.1,0.9-2,2-2h32c1.1,0,2,0.9,2,2v24c0,1.1-0.9,2-2,2H8z"/>
</g>
</svg>
