<svg version="1.1" id="Livello_1" xmlns="http://www.w3.org/2000/svg" xmlns:xlink="http://www.w3.org/1999/xlink" x="0px" y="0px"
	 viewBox="0 0 48 48" style="enable-background:new 0 0 48 48;" xml:space="preserve">
<style type="text/css">
	.canva-icon-accent{fill:#E53935;}
</style>
<path class="canva-icon-accent" d="M40,4H8C5.8,4,4,5.8,4,8v32c0,2.2,1.8,4,4,4h32c2.2,0,4-1.8,4-4V8C44,5.8,42.2,4,40,4z M25.7,38.4
	c-0.6,0.6-1.3,0.8-2.3,0.8c-1,0-1.7-0.3-2.3-0.8c-0.6-0.6-0.9-1.3-0.9-2.1c0-0.9,0.3-1.6,0.9-2.2c0.6-0.6,1.4-0.8,2.3-0.8
	s1.7,0.3,2.3,0.8s0.9,1.3,0.9,2.2C26.6,37.1,26.3,37.8,25.7,38.4z M31.8,21c-0.5,1-1.4,2.1-2.6,3.3l-1.6,1.5c-1,1-1.6,2.1-1.7,3.3
	l-0.1,1.2h-5c0-1.8,0.2-3.3,0.7-4.4c0.4-1.1,1.3-2.1,2.4-3.2s2-1.9,2.4-2.6s0.6-1.4,0.6-2.1c0-2.2-1-3.3-3-3.3c-1,0-1.7,0.3-2.3,0.9
	c-0.6,0.6-0.9,1.4-0.9,2.5h-5.7c0-2.5,0.8-4.4,2.4-5.8c1.6-1.4,3.7-2.1,6.5-2.1c2.8,0,4.9,0.7,6.4,2c1.5,1.3,2.3,3.2,2.3,5.7
	C32.5,18.9,32.3,20,31.8,21z"/>
</svg>
