<svg version="1.1" id="Livello_1" xmlns="http://www.w3.org/2000/svg" xmlns:xlink="http://www.w3.org/1999/xlink" x="0px" y="0px"
	 viewBox="0 0 48 48" style="enable-background:new 0 0 48 48;" xml:space="preserve">
<style type="text/css">
	.canva-icon-accent{fill:#E53935;}
</style>
<path class="canva-icon-accent" d="M39,4H7C4.8,4,3,5.8,3,8v32c0,2.2,1.8,4,4,4h32c2.2,0,4-1.8,4-4V8C43,5.8,41.2,4,39,4z M34.2,24.3
	c-1.7-1.1-4.1-1-5.7,0.6l-0.6,0.6c-1.5,1.6-1.7,3.9-0.6,5.7l-3,3l-4-4l-3,3c-0.7,0.7-5.7,4.6-6.4,3.9c-0.7-0.7,3.2-5.8,3.9-6.5l3-3
	l-4-4l3-3c1.7,1.2,4.1,0.9,5.7-0.6l0.6-0.6c1.5-1.5,1.8-3.9,0.6-5.7l3-3l10.6,10.6L34.2,24.3z"/>
</svg>
