<svg version="1.1" id="Livello_1" xmlns="http://www.w3.org/2000/svg" xmlns:xlink="http://www.w3.org/1999/xlink" x="0px" y="0px"
	 viewBox="0 0 48 48" style="enable-background:new 0 0 48 48;" xml:space="preserve">
<style type="text/css">
	.canva-icon-accent{fill:#E53935;}
</style>
<g>
	<g>
		<g>
			<path class="canva-icon-accent" d="M10,20c-4.4,0-8-3.6-8-8s3.6-8,8-8s8,3.6,8,8S14.4,20,10,20z M10,7c-2.8,0-5,2.2-5,5s2.2,5,5,5s5-2.2,5-5
				S12.8,7,10,7z"/>
		</g>
		<g>
			<path d="M44.5,44h-21c-0.8,0-1.5-0.7-1.5-1.5s0.7-1.5,1.5-1.5h21c0.8,0,1.5,0.7,1.5,1.5S45.3,44,44.5,44z M44.5,35.8h-21
				c-0.8,0-1.5-0.7-1.5-1.5s0.7-1.5,1.5-1.5h21c0.8,0,1.5,0.7,1.5,1.5S45.3,35.8,44.5,35.8z M44.5,27.5h-21c-0.8,0-1.5-0.7-1.5-1.5
				s0.7-1.5,1.5-1.5h21c0.8,0,1.5,0.7,1.5,1.5S45.3,27.5,44.5,27.5z M44.5,19.2h-21c-0.8,0-1.5-0.7-1.5-1.5s0.7-1.5,1.5-1.5h21
				c0.8,0,1.5,0.7,1.5,1.5S45.3,19.2,44.5,19.2z M44.5,11h-21c-0.8,0-1.5-0.7-1.5-1.5S22.7,8,23.5,8h21C45.3,8,46,8.7,46,9.5
				S45.3,11,44.5,11z"/>
		</g>
	</g>
</g>
</svg>
