<svg version="1.1" id="Livello_1" xmlns="http://www.w3.org/2000/svg" xmlns:xlink="http://www.w3.org/1999/xlink" x="0px" y="0px"
	 viewBox="0 0 48 48" style="enable-background:new 0 0 48 48;" xml:space="preserve">
<style type="text/css">
	.canva-icon-accent{fill:#E53935;}
</style>
<g>
	<g>
		<path class="canva-icon-accent" d="M19.4,18.5c-1.2,0-2.2,0.4-2.8,1.2c-0.7,0.8-1,2-1,3.6v2.1c0,1.5,0.4,2.7,1,3.5s1.6,1.2,2.8,1.2
			c1.3,0,2.2-0.4,2.9-1.2c0.7-0.8,1-2,1-3.6v-2.1c0-1.5-0.4-2.7-1-3.5C21.6,18.9,20.6,18.5,19.4,18.5z M21,25.7c0,0.9-0.1,1.6-0.4,2
			c-0.2,0.4-0.6,0.6-1.2,0.6c-0.6,0-1-0.2-1.2-0.7c-0.3-0.5-0.4-1.1-0.4-2.1v-2.8c0-0.9,0.1-1.5,0.4-1.9c0.3-0.4,0.6-0.6,1.2-0.6
			c0.5,0,0.9,0.2,1.2,0.6S21,22.1,21,23V25.7z"/>
		<path class="canva-icon-accent" d="M31.9,25.2c-0.3-0.5-0.8-0.8-1.4-1c0.5-0.2,0.9-0.6,1.2-1s0.5-0.9,0.5-1.4c0-1-0.3-1.8-1-2.4
			c-0.7-0.6-1.6-0.9-2.8-0.9c-0.7,0-1.3,0.1-1.9,0.4s-1,0.6-1.3,1.1c-0.3,0.5-0.5,1-0.5,1.6h2.3c0-0.4,0.1-0.7,0.4-0.9
			c0.3-0.2,0.7-0.4,1.1-0.4c0.5,0,0.9,0.1,1.1,0.4c0.3,0.3,0.4,0.6,0.4,1.1c0,0.5-0.1,0.9-0.4,1.1c-0.3,0.3-0.7,0.4-1.3,0.4h-1.2
			v1.8h1.2c1.2,0,1.9,0.6,1.9,1.7c0,0.5-0.2,0.8-0.5,1.1s-0.7,0.4-1.3,0.4c-0.5,0-0.9-0.1-1.2-0.4s-0.5-0.6-0.5-1h-2.3
			c0,1,0.4,1.8,1.1,2.4s1.6,0.9,2.8,0.9c1.2,0,2.2-0.3,2.9-0.9s1.1-1.4,1.1-2.4C32.4,26.2,32.2,25.6,31.9,25.2z"/>
	</g>
	<path d="M43.9,37c0.1-0.3,0.1-0.7,0.1-1V12c0-2.2-1.8-4-4-4H8c-2.2,0-4,1.8-4,4v24c0,0.3,0.1,0.7,0.1,1H0v3h8h32h8v-3H43.9z M8,37
		c-0.6,0-1-0.4-1-1V12c0-0.6,0.4-1,1-1h32c0.6,0,1,0.4,1,1v24c0,0.6-0.4,1-1,1H8z"/>
</g>
</svg>
