<svg version="1.1" id="Livello_1" xmlns="http://www.w3.org/2000/svg" xmlns:xlink="http://www.w3.org/1999/xlink" x="0px" y="0px"
	 viewBox="0 0 48 48" style="enable-background:new 0 0 48 48;" xml:space="preserve">
<g>
	<path d="M43.5,38c0.3-0.6,0.5-1.3,0.5-2V12c0-2.2-1.8-4-4-4H8c-2.2,0-4,1.8-4,4v24c0,0.7,0.2,1.4,0.5,2H0v2h48v-2H43.5z M42,36
		c0,1.1-0.9,2-2,2H8c-1.1,0-2-0.9-2-2V12c0-1.1,0.9-2,2-2h32c1.1,0,2,0.9,2,2V36z"/>
	<path d="M13.6,23.2l5-3.3c0.5-0.3,0.6-0.9,0.3-1.4c-0.3-0.5-0.9-0.6-1.4-0.3l-5,3.3C11.5,22.1,11,23,11,24c0,1,0.5,1.9,1.5,2.5
		l5,3.3c0.2,0.1,0.4,0.2,0.6,0.2c0.3,0,0.6-0.2,0.8-0.4c0.3-0.5,0.2-1.1-0.3-1.4l-5-3.3C13.2,24.6,13,24.3,13,24
		C13,23.7,13.2,23.4,13.6,23.2z"/>
	<path d="M35.5,21.5l-5-3.3c-0.5-0.3-1.1-0.2-1.4,0.3c-0.3,0.5-0.2,1.1,0.3,1.4l5,3.3c0.4,0.3,0.6,0.6,0.6,0.8
		c0,0.3-0.2,0.6-0.6,0.8l-5,3.3c-0.5,0.3-0.6,0.9-0.3,1.4c0.2,0.3,0.5,0.4,0.8,0.4c0.2,0,0.4-0.1,0.6-0.2l5-3.3
		C36.5,25.9,37,25,37,24C37,23,36.5,22.1,35.5,21.5z"/>
</g>
</svg>
