<svg version="1.1" id="Livello_1" xmlns="http://www.w3.org/2000/svg" xmlns:xlink="http://www.w3.org/1999/xlink" x="0px" y="0px"
	 viewBox="0 0 48 48" style="enable-background:new 0 0 48 48;" xml:space="preserve">
<g>
	<path d="M32.6,21.8v-0.4c0-0.6-0.2-1-0.5-1.3c-0.3-0.3-0.8-0.5-1.3-0.5c-0.6,0-1,0.2-1.3,0.5c-0.3,0.3-0.5,0.8-0.5,1.3v0.4
		c0,0.5,0.2,1,0.5,1.3c0.3,0.3,0.8,0.5,1.3,0.5c0.6,0,1-0.2,1.3-0.5C32.4,22.8,32.6,22.4,32.6,21.8z M31.4,21.8
		c0,0.2-0.1,0.4-0.2,0.6c-0.1,0.1-0.3,0.2-0.5,0.2c-0.2,0-0.4-0.1-0.5-0.2C30,22.3,30,22.1,30,21.8v-0.4c0-0.3,0.1-0.5,0.2-0.6
		c0.1-0.1,0.3-0.2,0.5-0.2c0.2,0,0.4,0.1,0.5,0.2c0.1,0.1,0.2,0.3,0.2,0.6V21.8z"/>
	<path d="M34.8,28.4c0.6,0,1-0.2,1.3-0.5c0.3-0.3,0.5-0.7,0.5-1.3v-0.4c0-0.6-0.2-1-0.5-1.3c-0.3-0.3-0.8-0.5-1.3-0.5
		c-0.5,0-1,0.2-1.3,0.5c-0.3,0.3-0.5,0.7-0.5,1.3v0.4c0,0.5,0.2,1,0.5,1.3C33.8,28.2,34.2,28.4,34.8,28.4z M34.1,26.2
		c0-0.2,0.1-0.4,0.2-0.6c0.1-0.1,0.3-0.2,0.5-0.2c0.2,0,0.4,0.1,0.5,0.2c0.1,0.1,0.2,0.3,0.2,0.6v0.4c0,0.5-0.2,0.8-0.7,0.8
		c-0.2,0-0.4-0.1-0.5-0.2c-0.1-0.2-0.2-0.3-0.2-0.6V26.2z"/>
	<polygon points="35.2,21 34.4,20.5 30.2,27.2 31,27.6 	"/>
	<polygon points="13.5,28.3 13.5,19.7 13.4,19.7 9.8,21 9.8,22.4 11.8,21.7 11.8,28.3 	"/>
	<path d="M22.7,20.5c-0.5,0.6-0.7,1.5-0.7,2.7v1.6c0,1.1,0.3,2,0.8,2.6c0.5,0.6,1.2,0.9,2.1,0.9c0.9,0,1.7-0.3,2.1-0.9
		c0.5-0.6,0.7-1.5,0.7-2.7v-1.6c0-1.1-0.3-2-0.8-2.6c-0.5-0.6-1.2-0.9-2.1-0.9C23.9,19.6,23.2,19.9,22.7,20.5z M25.8,21.5
		c0.2,0.3,0.3,0.8,0.3,1.5v2c0,0.7-0.1,1.2-0.3,1.5c-0.2,0.3-0.5,0.5-0.9,0.5c-0.4,0-0.7-0.2-0.9-0.5c-0.2-0.3-0.3-0.9-0.3-1.6v-2.1
		c0-0.7,0.1-1.1,0.3-1.4c0.2-0.3,0.5-0.5,0.9-0.5C25.3,21,25.6,21.1,25.8,21.5z"/>
	<path d="M15.8,20.5c-0.5,0.6-0.7,1.5-0.7,2.7v1.6c0,1.1,0.3,2,0.8,2.6c0.5,0.6,1.2,0.9,2.1,0.9c0.9,0,1.7-0.3,2.1-0.9
		c0.5-0.6,0.7-1.5,0.7-2.7v-1.6c0-1.1-0.3-2-0.8-2.6c-0.5-0.6-1.2-0.9-2.1-0.9C17,19.6,16.3,19.9,15.8,20.5z M18.9,21.5
		c0.2,0.3,0.3,0.8,0.3,1.5v2c0,0.7-0.1,1.2-0.3,1.5C18.7,26.9,18.4,27,18,27c-0.4,0-0.7-0.2-0.9-0.5c-0.2-0.3-0.3-0.9-0.3-1.6v-2.1
		c0-0.7,0.1-1.1,0.3-1.4c0.2-0.3,0.5-0.5,0.9-0.5C18.4,21,18.7,21.1,18.9,21.5z"/>
	<path d="M43.5,21.5l-5-3.3c-0.5-0.3-1.1-0.2-1.4,0.3c-0.3,0.5-0.2,1.1,0.3,1.4l5,3.3c0.4,0.3,0.6,0.6,0.6,0.8
		c0,0.3-0.2,0.6-0.6,0.8l-5,3.3c-0.5,0.3-0.6,0.9-0.3,1.4c0.2,0.3,0.5,0.4,0.8,0.4c0.2,0,0.4-0.1,0.6-0.2l5-3.3
		C44.5,25.9,45,25,45,24C45,23,44.5,22.1,43.5,21.5z"/>
	<path d="M8,30c0.3,0,0.6-0.2,0.8-0.4c0.3-0.5,0.2-1.1-0.3-1.4l-5-3.3C3.2,24.6,3,24.3,3,24c0-0.3,0.2-0.6,0.6-0.8l5-3.3
		c0.5-0.3,0.6-0.9,0.3-1.4c-0.3-0.5-0.9-0.6-1.4-0.3l-5,3.3C1.5,22.1,1,23,1,24c0,1,0.5,1.9,1.5,2.5l5,3.3C7.6,29.9,7.8,30,8,30z"/>
	<path d="M5,12c0-1.1,0.9-2,2-2h32c1.1,0,2,0.9,2,2v6.6l2,1.3V12c0-2.2-1.8-4-4-4H7c-2.2,0-4,1.8-4,4v7.9l2-1.3V12z"/>
	<path d="M41,36c0,1.1-0.9,2-2,2H7c-1.1,0-2-0.9-2-2v-6.6l-2-1.3V36c0,2.2,1.8,4,4,4h32c2.2,0,4-1.8,4-4v-7.9l-2,1.3V36z"/>
</g>
</svg>
