<svg version="1.1" id="Livello_1" xmlns="http://www.w3.org/2000/svg" xmlns:xlink="http://www.w3.org/1999/xlink" x="0px" y="0px"
	 viewBox="0 0 48 48" style="enable-background:new 0 0 48 48;" xml:space="preserve">
<style type="text/css">
	.canva-icon-accent{fill:#E53935;}
</style>
<g>
	<path d="M41,33.7V36c0,0.6-0.4,1-1,1H8c-0.6,0-1-0.4-1-1v-2.3l-3-2V36c0,2.2,1.8,4,4,4h32c2.2,0,4-1.8,4-4v-4.3L41,33.7z"/>
	<path d="M7,14v-2c0-0.6,0.4-1,1-1h32c0.6,0,1,0.4,1,1v2l3,2V12c0-2.2-1.8-4-4-4H8c-2.2,0-4,1.8-4,4v4.1L7,14z"/>
</g>
<path class="canva-icon-accent" d="M44.8,21.1l-5-3.3c-0.3-0.2-0.7-0.3-1.1-0.2c-0.4,0.1-0.7,0.3-1,0.6c-0.2,0.3-0.3,0.7-0.2,1.1
	c0.1,0.4,0.3,0.7,0.6,1l3.4,2.3H6.5l3.4-2.3c0.3-0.2,0.6-0.6,0.6-1c0.1-0.4,0-0.8-0.2-1.1c-0.2-0.3-0.6-0.6-1-0.6
	c-0.4-0.1-0.8,0-1.1,0.2l-5,3.3c-1.1,0.7-1.7,1.8-1.7,2.9c0,1.1,0.6,2.2,1.7,2.9l5,3.3c0.2,0.2,0.5,0.3,0.8,0.3c0.5,0,1-0.2,1.2-0.7
	c0.5-0.7,0.3-1.6-0.4-2.1l-3.4-2.3h35.1l-3.4,2.3c-0.7,0.5-0.9,1.4-0.4,2.1c0.3,0.4,0.7,0.7,1.2,0.7c0.3,0,0.6-0.1,0.8-0.3l5-3.3
	c1.1-0.7,1.7-1.8,1.7-2.9C46.5,22.9,45.9,21.8,44.8,21.1z"/>
</svg>
