<svg version="1.1" id="Livello_1" xmlns="http://www.w3.org/2000/svg" xmlns:xlink="http://www.w3.org/1999/xlink" x="0px" y="0px"
	 viewBox="0 0 48 48" style="enable-background:new 0 0 48 48;" xml:space="preserve">
<style type="text/css">
	.canva-icon-accent{fill:#E53935;}
</style>
<path class="canva-icon-accent" d="M16,28.6c0.2,0.2,0.5,0.2,0.7,0l5.7-5.7c0.2-0.2,0.2-0.5,0-0.7l-1.1-1.1c-0.2-0.2-0.5-0.2-0.7,0l-4.3,4.2
	l-1.8-1.9c-0.2-0.2-0.5-0.2-0.7,0l-1.1,1.1c-0.2,0.2-0.2,0.5,0,0.7L16,28.6L16,28.6z"/>
<g>
	<g>
		<path d="M15.4,31.3c-1.4,0-2.5,1.1-2.5,2.5c0,1.4,1.1,2.5,2.5,2.5s2.5-1.1,2.5-2.5C17.9,32.4,16.8,31.3,15.4,31.3z"/>
		<path d="M34.7,32.3H21.9c-0.4,0-0.7,0.2-0.7,0.5v2c0,0.3,0.3,0.5,0.7,0.5h12.9c0.4,0,0.7-0.2,0.7-0.5v-2
			C35.4,32.5,35.1,32.3,34.7,32.3z"/>
	</g>
	<path d="M34.7,24.4h-9.5c-0.2,0.3-0.4,0.6-0.8,0.8l-3.1,2.2h13.4c0.4,0,0.7-0.2,0.7-0.5v-2C35.4,24.6,35.1,24.4,34.7,24.4z"/>
	<g>
		<polygon points="19.1,13.1 15.7,13.1 15.7,10.9 19.5,10.9 19.5,9.5 13.9,9.5 13.9,18 15.7,18 15.7,14.5 19.1,14.5 		"/>
		<path d="M21.8,9.5L18.6,18h1.9l0.6-1.8h3.1l0.6,1.8h1.9l-3.2-8.5H21.8z M21.6,14.8l1.1-3.2l1.1,3.2H21.6z"/>
		<path d="M40,4H8C5.8,4,4,5.8,4,8v32c0,2.2,1.8,4,4,4h32c2.2,0,4-1.8,4-4V8C44,5.8,42.2,4,40,4z M41,40c0,0.6-0.4,1-1,1H8
			c-0.6,0-1-0.4-1-1V8c0-0.6,0.4-1,1-1h32c0.6,0,1,0.4,1,1V40z"/>
		<path d="M32.6,9.9c-0.6-0.3-1.2-0.5-1.9-0.5s-1.3,0.2-1.9,0.5s-1,0.8-1.3,1.5S27,12.7,27,13.6V14c0,0.8,0.2,1.5,0.5,2.2
			s0.7,1.1,1.3,1.5s1.2,0.5,1.9,0.5c0.2,0,0.4,0,0.6-0.1l1.8,1.5l1.1-1l-1.4-1.1c0.5-0.4,0.8-0.8,1.1-1.4s0.4-1.3,0.4-2.1v-0.4
			c0-0.8-0.2-1.6-0.5-2.2S33.1,10.2,32.6,9.9z M32.5,14c0,0.9-0.2,1.6-0.5,2s-0.8,0.7-1.4,0.7c-0.6,0-1.1-0.2-1.4-0.7
			s-0.5-1.2-0.5-2v-0.4c0-0.9,0.2-1.6,0.5-2s0.8-0.7,1.4-0.7c0.6,0,1.1,0.2,1.4,0.7s0.5,1.1,0.5,2V14z"/>
	</g>
</g>
</svg>
