<svg xmlns="http://www.w3.org/2000/svg" viewBox="0 0 365.5 162.84"><g id="Livello_2" data-name="Livello 2"><g id="Livello_1-2" data-name="Livello 1"><path d="M209,85.5c5,0,11.63,1.77,11.63,10.63v18.78h-6.1v-3.76a10.1,10.1,0,0,1-8.86,4.54c-8.09,0-9.58-6-9.58-8.53,0-3,1-8.48,9.69-9.42l8.81-.89c0-4.32-2.16-5.65-5.76-5.65s-5.82,1.94-6.09,5L197,95c.55-3.6,3.05-9.48,12-9.48Zm-1.89,25c5.65,0,7.15-4.37,7.15-9.08l-6,.66c-4.71.5-5.65,2.33-5.65,4.32,0,2.22,1.38,4,4.54,4Z"/><path d="M254.75,76.36v38.55h-6.1V111a10,10,0,0,1-9,4.77c-9.64,0-14.18-7.81-14.18-15.12s4.49-15.13,14.18-15.13a10,10,0,0,1,9,5.1V76.36Zm-7.09,24.26c0-4-2.22-8.92-7.76-8.92s-7.75,4.93-7.75,8.92,2.21,8.92,7.75,8.92S247.66,104.61,247.66,100.62Z"/><path d="M289.86,76.36v38.55h-6.09V111a10,10,0,0,1-9,4.77c-9.64,0-14.18-7.81-14.18-15.12S265,85.55,274.74,85.55a10,10,0,0,1,9,5.1V76.36Zm-7.09,24.26c0-4-2.22-8.92-7.76-8.92s-7.75,4.93-7.75,8.92,2.21,8.92,7.75,8.92S282.77,104.61,282.77,100.62Z"/><path d="M221.42,153.69c-.86,4.07-3.75,9.15-12.09,9.15-9.48,0-13.27-7.33-13.27-14.17s3.85-14.18,13.27-14.18,13.1,6.47,12.35,14.87H200.12c0,4.5,2.57,10,9.31,10,6.1,0,7.65-4.11,8.24-6.52Zm-12.09-15.78c-5.73,0-8.35,4.18-9.05,8.24h17.39c-.32-4.81-3.1-8.24-8.4-8.24Z"/><path d="M253,125v37.07h-3.8v-5a10.1,10.1,0,0,1-9.58,5.67c-8.88,0-13.16-7.33-13.16-14.18s4.28-14.17,13.16-14.17a10.09,10.09,0,0,1,9.58,5.93v-15.3Zm-4,23.59c0-4.76-2.68-10.64-9.31-10.64s-9.31,5.88-9.31,10.64,2.67,10.65,9.31,10.65S249,153.37,249,148.61Z"/><path d="M263.16,129.84A2.89,2.89,0,1,1,266,127,2.88,2.88,0,0,1,263.16,129.84ZM265,162.09h-3.8V135.18H265Z"/><path d="M279.15,127.21v8h7.07v3.26h-7.07v14.61c0,5.29,2.09,5.77,5.57,5.77h1.55v3.27h-1.6c-5.14,0-9.31-.75-9.31-9V138.5h-4.5v-3.26c4.28,0,4.82-.7,4.82-8Z"/><path d="M316.66,148.61c0,6.85-4.23,14.18-13.21,14.18s-13.22-7.33-13.22-14.18,4.23-14.17,13.22-14.17S316.66,141.77,316.66,148.61Zm-3.9.06c0-4.77-2.68-10.65-9.31-10.65s-9.31,5.88-9.31,10.65,2.67,10.64,9.31,10.64S312.76,153.43,312.76,148.67Z"/><path d="M336.84,135.24V139c-7.49-1.18-10.65,3.74-10.65,11.39v11.72h-3.8V135.24h3.8v5.29C328.06,136.31,331.49,134.17,336.84,135.24Z"/><path d="M365.14,153.69c-.86,4.07-3.74,9.15-12.09,9.15-9.47,0-13.27-7.33-13.27-14.17s3.85-14.18,13.27-14.18,13.11,6.47,12.36,14.87H343.85c0,4.5,2.57,10,9.31,10,6.09,0,7.65-4.11,8.24-6.52Zm-12.09-15.78c-5.73,0-8.35,4.18-9,8.24H361.4c-.32-4.81-3.11-8.24-8.4-8.24Z"/><path d="M47.1,85.68H8.57v76.64H47.1A37.91,37.91,0,0,0,74,151.07,38.33,38.33,0,0,0,47.1,85.68"/><path d="M76.6,76.59V36.88h0A38,38,0,0,0,38.59,0a38.31,38.31,0,0,0-2,76.59h0s3,0,3.49,0Z"/><path d="M132.27,85.68H93.75v76.64h38.52a37.87,37.87,0,0,0,26.89-11.25,38.33,38.33,0,0,0-26.89-65.39"/></g></g></svg>