<svg xmlns="http://www.w3.org/2000/svg" viewBox="0 0 512 512"><g>
	<path d="M441.3,77.5H98.5c-10.1,0-18.2-10.8-18.2-23.6c0-12.8,8.1-23.6,18.2-23.6h342.2c5.4,0,10.1-4.7,10.1-10.1
		c0-5.4-4.7-10.1-10.1-10.1H98.5C77.6,10,60,29.6,60,53.9l0,371.2c0,42.5,29.7,77.6,66.8,77.6h314.5l0,0c5.4,0,10.1-4.7,10.1-10.1
		V87.6C451.4,82.2,446.7,77.5,441.3,77.5z M430.5,482.4H126.8c-25.6,0-46.6-25.6-46.6-57.4V92.3c5.4,3.4,11.5,5.4,18.2,5.4l332.1,0
		V482.4z"/>
	<path d="M97.8,43.7c-5.4,0-10.1,4.7-10.1,10.1c0,5.4,4.7,10.1,10.1,10.1h324.6c5.4,0,10.1-4.7,10.1-10.1s-4.7-10.1-10.1-10.1H97.8z
		"/>
</g>
</svg>
