<svg xmlns="http://www.w3.org/2000/svg" viewBox="0 0 512 512"><g>
	<path d="M410.5,140.7V77.2c0-2.9-1.2-5.7-3.2-7.8c-2.1-2.1-4.9-3.2-7.8-3.2h-91.8V38.8c0-6.1-4.9-11-11-11c-6.1,0-11,4.9-11,11
		v27.4h-153V38.8c0-6.1-4.9-11-11-11c-6.1,0-11,4.9-11,11v27.4H20c-2.9,0-5.7,1.2-7.8,3.2c-2.1,2.1-3.2,4.9-3.2,7.8v395.9
		c0,2.9,1.2,5.7,3.2,7.8s4.9,3.2,7.8,3.2h367.1c2.9,0,5.7-1.2,7.8-3.2s3.2-4.9,3.2-7.8V371.8H494c2.9,0,5.7-1.2,7.8-3.2
		s3.2-4.9,3.2-7.8v-22.2c0-3.4-1.5-6.5-4.2-8.6c-28.2-22.8-51-51.6-66.6-84.4C418.6,212.9,410.5,177,410.5,140.7L410.5,140.7z
		 M376.1,462.1H31V432h200.4c6.1,0,11-4.9,11-11c0-6.1-4.9-11-11-11H31V234c18.9,41.1,49.2,75.9,87.3,100.3s82.4,37.4,127.6,37.5
		h130.2L376.1,462.1z M483,349.8H245.9c-57-0.1-111.6-22.7-151.9-63c-40.3-40.3-63-94.9-63-151.9V88.3h79.6v29.3c0,6.1,4.9,11,11,11
		c6.1,0,11-4.9,11-11V88.3h153v29.3c0,6.1,4.9,11,11,11c6.1,0,11-4.9,11-11V88.3h80.8v52.5c0,38.7,8.5,76.9,24.8,112
		c16.3,35.1,40.1,66.2,69.7,91.1L483,349.8z"/>
	<path d="M315.2,432c2.9,0,5.8-1.1,7.8-3.2c2.1-2.1,3.2-4.9,3.2-7.8c-0.1-2.9-1.2-5.6-3.2-7.7c-2.6-2.7-6.3-3.8-9.9-3.1
		c-0.7,0.1-1.4,0.3-2.1,0.7c-0.7,0.2-1.3,0.6-1.9,1c-0.6,0.4-1.2,0.9-1.8,1.4c-2,2.1-3.1,4.8-3.2,7.7c0,2.9,1.2,5.7,3.2,7.8
		C309.4,430.9,312.3,432,315.2,432L315.2,432z"/>
</g>
</svg>
