<svg xmlns="http://www.w3.org/2000/svg" viewBox="0 0 512 512"><g>
	<path d="M490.6,88H117.3L97.7,39c-1.7-4.1-5.9-7-10.3-7H20.2C14,32,9,37,9,43.2s5,11.2,11.2,11.2h59.7
		c28.6,70.8,56.7,141.7,85.1,212.6l-26.2,63c-2.9,6.8,3,15.6,10.3,15.6h280c5.9,0.1,11.4-5.3,11.4-11.2c0-5.9-5.4-11.3-11.4-11.2
		H165.8l18.9-45.5l273.2-21.9c4.7-0.4,8.9-4,10-8.6l33.6-145.6C502.9,95.1,497.3,88,490.6,88z M447.9,234.3l-263.5,21l-58.1-144.9
		h350.3L447.9,234.3z"/>
	<path d="M373,379.2c-27.7,0-50.4,22.7-50.4,50.4c0,27.7,22.7,50.4,50.4,50.4c27.7,0,50.4-22.7,50.4-50.4
		C423.4,401.9,400.7,379.2,373,379.2z M373,457.6c-15.6,0-28-12.4-28-28s12.4-28,28-28s28,12.4,28,28S388.6,457.6,373,457.6z"/>
	<path d="M205,379.2c-27.7,0-50.4,22.7-50.4,50.4c0,27.7,22.7,50.4,50.4,50.4s50.4-22.7,50.4-50.4
		C255.4,401.9,232.7,379.2,205,379.2z M205,457.6c-15.6,0-28-12.4-28-28s12.4-28,28-28s28,12.4,28,28S220.6,457.6,205,457.6z"/>
</g>
</svg>
