<svg xmlns="http://www.w3.org/2000/svg" viewBox="0 0 512 512">
<g>
	<path d="M506.8,86c-4.1-5.1-10-8-16.2-8H124.1L107,35.3l0-0.1C103.7,27.3,95.8,22,87.4,22H20.2C8.5,22-1,31.5-1,43.2
		c0,11.7,9.5,21.2,21.2,21.2h53c17.5,43.5,35.2,87.6,52.2,130.4c9.6,24.1,19.2,48.1,28.8,72.2l-24.6,59.1
		c-2.7,6.3-1.9,13.7,2.2,19.8c4,6.1,10.5,9.8,17.3,9.8H429c0.1,0,0.1,0,0.2,0c5.4,0,10.7-2.3,14.8-6.2c4.1-4,6.5-9.5,6.5-15
		c0-5.5-2.4-11-6.5-15c-4.1-4-9.6-6.3-15-6.2H180.8l10.8-26l267.2-21.4c9-0.8,16.8-7.4,18.9-16.3l33.6-145.6l0-0.1
		C512.6,97.6,511,91.2,506.8,86z M464,120.4l-24.2,104.5l-248.9,19.8l-49.9-124.3H464z"/>
	<path d="M373,369.2c-33.3,0-60.4,27.1-60.4,60.4S339.7,490,373,490s60.4-27.1,60.4-60.4S406.3,369.2,373,369.2z M373,447.6
		c-10.1,0-18-7.9-18-18s7.9-18,18-18s18,7.9,18,18S383.1,447.6,373,447.6z"/>
	<path d="M205,369.2c-33.3,0-60.4,27.1-60.4,60.4S171.7,490,205,490s60.4-27.1,60.4-60.4S238.3,369.2,205,369.2z M205,447.6
		c-10.1,0-18-7.9-18-18s7.9-18,18-18s18,7.9,18,18S215.1,447.6,205,447.6z"/>
</g>
</svg>
