<svg xmlns="http://www.w3.org/2000/svg" viewBox="0 0 512 512"><g>
	<path d="M498.6,333.2l-207.2,92.6c-5.8-9.8-16.6-16.5-28.8-16.5c-3.2,0-6.4,0.5-9.3,1.4L118.9,89.7c3.6-11.5-2.4-24-13.8-28.2
		L38.6,37c-5.7-2.1-11.9-1.9-17.4,0.7c-5.5,2.5-9.7,7.1-11.8,12.8c-4.3,11.8,1.7,24.9,13.5,29.2l66.5,24.5c2.6,0.9,5.2,1.4,7.9,1.4
		c3.2,0,6.5-0.7,9.5-2.1c2.9-1.3,5.3-3.2,7.4-5.5l132.1,315.5c-10.2,5.8-17.2,16.7-17.2,29.2c0,18.5,15,33.5,33.5,33.5
		c18.5,0,33.5-15,33.5-33.5c0-3.5-0.6-6.9-1.6-10.1l207.2-92.6c1.9-0.9,2.8-3.1,1.9-5C502.8,333.2,500.6,332.3,498.6,333.2
		L498.6,333.2z M103.5,96.6c-3.7,1.7-7.8,1.9-11.6,0.5L25.5,72.6c-7.8-2.9-11.8-11.6-9-19.4c1.4-3.8,4.2-6.8,7.9-8.5
		c2-0.9,4.2-1.4,6.3-1.4c1.8,0,3.5,0.3,5.2,0.9l66.5,24.5c7.8,2.9,11.8,11.6,9,19.4c0,0,0,0,0,0.1c0,0.1-0.1,0.2-0.1,0.3
		C109.8,92.1,107.1,95,103.5,96.6L103.5,96.6z M262.6,468.7c-14.3,0-25.9-11.6-25.9-25.9c0-10.7,6.6-20,15.9-23.9c0,0,0,0,0,0
		c0,0,0,0,0,0c3.1-1.3,6.5-2,10-2c10.5,0,19.6,6.3,23.6,15.3v0c0,0,0,0,0,0c1.4,3.2,2.3,6.8,2.3,10.6
		C288.5,457.1,276.9,468.7,262.6,468.7L262.6,468.7z"/>
	<path d="M212,221.3c-0.4,1-0.3,2,0.1,2.9l75.5,163.3c0.6,1.4,2,2.2,3.5,2.2c0.5,0,1.1-0.1,1.6-0.4l176-81.4c0.9-0.4,1.6-1.2,2-2.1
		c0.4-1,0.3-2-0.1-2.9L395,139.6c-0.9-1.9-3.2-2.7-5.1-1.9l-13.8,6.4L328.8,41.7c-0.9-1.9-3.2-2.7-5.1-1.9l-54.3,25.1h0L253,72.5
		l-70.7,32.7c-1.9,0.9-2.7,3.2-1.9,5.1l47.4,102.4l-13.8,6.4C213.1,219.5,212.4,220.3,212,221.3L212,221.3z M322.2,177.5l26.8,58
		l-20.5-3.9c-1.6-0.3-3.3,0.5-4.1,1.9l-9.6,17.5l-26.7-57.8L322.2,177.5z M256.2,79.5l13-6l16.1,34.7l-14.7-1.3
		c-1.4-0.1-2.7,0.5-3.5,1.7l-7.9,11.6l-16-34.6L256.2,79.5z M189,110.6l47.3-21.9l18.8,40.7c0.6,1.2,1.8,2.1,3.1,2.2
		c0.1,0,0.2,0,0.3,0c1.3,0,2.4-0.6,3.2-1.7l10.4-15.3l19,1.7c1.4,0.1,2.7-0.5,3.5-1.6c0.8-1.1,0.9-2.6,0.3-3.8l-18.8-40.7l47.3-21.9
		l45.8,99l-46.8,21.6c0,0,0,0,0,0l-41,19c0,0,0,0,0,0l-46.8,21.6L189,110.6z M234.5,218.1l46.8-21.6l29.9,64.7
		c0.6,1.3,1.9,2.2,3.3,2.2c0,0,0.1,0,0.1,0c1.4,0,2.7-0.8,3.3-2l11.9-21.8l25.1,4.7c1.4,0.3,2.8-0.3,3.7-1.4
		c0.9-1.1,1.1-2.7,0.5-3.9l-29.9-64.7l46.8-21.6l13.8-6.4L462,302.6L293,380.8l-72.3-156.3L234.5,218.1z"/>
	<path d="M209.5,408c0-2.1-1.7-3.8-3.8-3.8h-99.1c-2.1,0-3.8,1.7-3.8,3.8s1.7,3.8,3.8,3.8h99.1C207.8,411.8,209.5,410.1,209.5,408z"
		/>
	<path d="M52.9,409.4c0,2.1,1.7,3.8,3.8,3.8h24.1c2.1,0,3.8-1.7,3.8-3.8c0-2.1-1.7-3.8-3.8-3.8H56.8
		C54.6,405.5,52.9,407.3,52.9,409.4z"/>
	<path d="M185.7,285.8H86.6c-2.1,0-3.8,1.7-3.8,3.8c0,2.1,1.7,3.8,3.8,3.8h99.1c2.1,0,3.8-1.7,3.8-3.8
		C189.5,287.5,187.8,285.8,185.7,285.8z"/>
	<path d="M60.8,287.2H36.7c-2.1,0-3.8,1.7-3.8,3.8c0,2.1,1.7,3.8,3.8,3.8h24.1c2.1,0,3.8-1.7,3.8-3.8
		C64.6,288.9,62.9,287.2,60.8,287.2z"/>
	<path d="M65.1,353.1c0,2.1,1.7,3.8,3.8,3.8H168c2.1,0,3.8-1.7,3.8-3.8c0-2.1-1.7-3.8-3.8-3.8H68.9C66.8,349.3,65.1,351,65.1,353.1
		L65.1,353.1z"/>
	<path d="M15.2,354.5c0,2.1,1.7,3.8,3.8,3.8h24.1c2.1,0,3.8-1.7,3.8-3.8s-1.7-3.8-3.8-3.8H19C16.9,350.7,15.2,352.4,15.2,354.5z"/>
</g>
</svg>
