<svg xmlns="http://www.w3.org/2000/svg" viewBox="0 0 512 512">
<path d="M443.7,16.3C433.3,6,419,0,404.5,0h-298C92,0,77.7,6,67.3,16.3C57,26.7,51,41,51,55.5v401c0,14.5,6,28.8,16.3,39.2
	S92,512,106.5,512h298c14.5,0,28.8-6,39.2-16.3C454,485.3,460,471,460,456.5v-401C460,41,454,26.7,443.7,16.3z M408.3,460.3
	c-1,0.9-2.2,1.4-3.7,1.4h-298c-1.8,0-3-0.8-3.8-1.5c-0.9-1-1.4-2.2-1.4-3.7v-401c0-1.8,0.8-3,1.5-3.8c1-0.9,2.2-1.4,3.7-1.4h298
	c1.7,0,3,0.8,3.7,1.5c0.7,0.8,1.5,2,1.5,3.7v401C409.8,458.3,409,459.5,408.3,460.3z"/>
<rect x="148.4" y="227.7" width="214.3" height="46.1"/>
<rect x="148.5" y="126" width="135.6" height="46.1"/>
<rect x="148.4" y="329.4" width="179.3" height="46.1"/>
</svg>
