<svg xmlns="http://www.w3.org/2000/svg" viewBox="0 0 512 512"><g>
	<path d="M445,461.6V51.5c0-10.7-4.3-21-11.9-28.6S415.2,11,404.5,11h-298c-10.7,0-21,4.3-28.6,11.9S66,40.8,66,51.5v410.1
		c0,10.7,4.3,21,11.9,28.6s17.9,11.9,28.6,11.9h298c10.7,0,21-4.3,28.6-11.9S445,472.3,445,461.6L445,461.6z M424.8,461.6
		L424.8,461.6c0,5.4-2.1,10.5-5.9,14.3s-8.9,5.9-14.3,5.9h-298c-5.4,0-10.5-2.1-14.3-5.9s-5.9-8.9-5.9-14.3V51.5
		c0-5.4,2.1-10.5,5.9-14.3s8.9-5.9,14.3-5.9h298c5.4,0,10.5,2.1,14.3,5.9s5.9,8.9,5.9,14.3V461.6L424.8,461.6z M403.4,421.7
		c1.9-1.9,3-4.5,3-7.2V59.8c0-2.7-1.1-5.3-3-7.2s-4.5-3-7.2-3l0,0H114.8c-5.6,0-10.1,4.5-10.1,10.1v354.8c0,2.7,1.1,5.3,3,7.2
		c1.9,1.9,4.5,3,7.2,3h281.4C398.9,424.7,401.5,423.6,403.4,421.7L403.4,421.7z M386.1,404.4H124.9V69.9H386v334.5H386.1z
		 M272,140.1H148v20.2h124V140.1L272,140.1z M363.1,200.9H147.9v20.2h215.2L363.1,200.9L363.1,200.9z M363.1,261.6H147.9v20.2h215.2
		L363.1,261.6L363.1,261.6z M322.6,322.4H147.9v20.3h174.7L322.6,322.4L322.6,322.4z"/>
</g>
</svg>
