<svg xmlns="http://www.w3.org/2000/svg" viewBox="0 0 512 512">
<g>
	<path d="M256,113.2c-40.4,0-73.4,32.9-73.4,73.4s32.9,73.4,73.4,73.4c40.4,0,73.4-32.9,73.4-73.4S296.4,113.2,256,113.2z
		 M321.5,186.5c0,36.1-29.4,65.5-65.5,65.5s-65.5-29.4-65.5-65.5S219.9,121,256,121S321.5,150.4,321.5,186.5z"/>
	<path d="M336,107.8c-21.3-21.5-49.7-33.3-80-33.3c-29.9,0-58,11.6-79.2,32.8c-21.1,21.2-32.8,49.3-32.8,79.2
		c-0.1,32.1,18.4,83.8,54.8,153.7c26.6,51,53.4,93.3,54.8,95.3l0,0c0.7,1.1,2,1.8,3.4,1.8c1.5,0,2.8-0.7,3.4-2
		c1.8-2.7,28.2-47.3,53.4-97.6c35.7-70.9,53.9-121.8,54.2-151.3C368.3,157,357,129.1,336,107.8z M359.9,186.6
		c-0.6,62-89.6,216.2-103.1,239.3c-19.3-31.3-105.2-173.8-104.9-239.3c0.2-57.4,46.9-104.1,104.1-104.1c28.2,0,54.5,11,74.3,31.1
		C349.7,133.2,360.3,159.1,359.9,186.6z"/>
</g>
</svg>
