<svg xmlns="http://www.w3.org/2000/svg" viewBox="0 0 512 512"><path d="M256,16.3C123.7,16.3,16.3,123.7,16.3,256c0,132.3,107.4,239.7,239.7,239.7S495.7,388.3,495.7,256c0-32.9-6.8-65.5-20-95.7
	c-0.9-2-2.5-3.7-4.6-4.5c-2.1-0.8-4.4-0.8-6.4,0.1c-2,0.9-3.6,2.6-4.4,4.6c-0.8,2.1-0.7,4.4,0.2,6.4c12.2,28.1,18.6,58.4,18.6,89.1
	c0,123.3-99.8,223.2-223.2,223.2S32.8,379.3,32.8,256S132.6,32.9,256,32.9c30.7,0,61,6.3,89.1,18.5l0,0c2,1,4.4,1.1,6.5,0.3
	c2.1-0.8,3.8-2.4,4.7-4.4c0.9-2.1,0.9-4.4,0.1-6.5c-0.9-2.1-2.5-3.7-4.6-4.5C321.5,23.1,288.9,16.3,256,16.3L256,16.3z M438.4,16.3
	c-2.1,0-4.2,0.9-5.7,2.4l-53.1,53.1h0c-1.7,1.7-2.6,4.1-2.4,6.6l3.6,40.2L253.1,246.3v0c-1.6,1.5-2.5,3.7-2.6,5.9
	c0,2.2,0.8,4.4,2.4,5.9c1.6,1.6,3.7,2.5,5.9,2.4c2.2,0,4.3-0.9,5.9-2.5l127.1-127l41.8,3.6c2.4,0.2,4.8-0.7,6.5-2.4l53.1-53.1
	c2.3-2.3,3-5.6,1.9-8.6c-1.1-3-3.8-5.1-7-5.4l-38-3.4l-3.3-38l0,0C446.5,19.5,442.8,16.2,438.4,16.3L438.4,16.3z M431.9,42.9
	l2.4,27.2v0c0.4,4,3.5,7.2,7.5,7.5L469,80l-37.9,37.9l-34-3l-3-34.1L431.9,42.9z M256,97.7c-87.4,0-158.3,71-158.3,158.3
	s71,158.4,158.3,158.4c87.4,0,158.4-71,158.4-158.4c0-23.6-5.3-46.9-15.4-68.2v0c-0.9-2-2.6-3.6-4.7-4.3c-2.1-0.7-4.4-0.6-6.4,0.3
	s-3.5,2.7-4.3,4.8c-0.7,2.1-0.6,4.4,0.4,6.4c9.1,19.1,13.9,39.9,13.9,61.1c0,78.4-63.4,141.8-141.8,141.8
	c-78.4,0-141.8-63.4-141.8-141.8c0-78.4,63.4-141.8,141.8-141.8c20.7,0,41.2,4.5,60,13.3h0c2,1.1,4.4,1.3,6.5,0.6
	c2.2-0.7,3.9-2.3,4.9-4.3c1-2.1,1-4.4,0.2-6.5c-0.8-2.1-2.5-3.8-4.6-4.6C302,102.7,279.1,97.6,256,97.7L256,97.7z M255.5,184.8
	c-39.1,0.2-70.9,32.3-70.7,71.4c0.2,39.1,32.2,70.9,71.3,70.9c39.1-0.1,70.9-32,70.9-71.1c-0.1-4.5-3.8-8.1-8.3-8.1
	c-4.5,0-8.2,3.6-8.3,8.1c0,30.2-24.3,54.5-54.5,54.6c-30.2,0.1-54.6-24.1-54.7-54.4c-0.1-30.2,24.1-54.7,54.3-54.9h0
	c2.2,0,4.4-0.8,5.9-2.4c1.6-1.6,2.5-3.7,2.4-5.9c0-2.2-0.9-4.3-2.5-5.9C259.9,185.6,257.8,184.8,255.5,184.8L255.5,184.8z"/>
</svg>
