<svg xmlns="http://www.w3.org/2000/svg" viewBox="0 0 512 512">
<g>
	<path d="M440.2,96.4l-85.4-80.8c-11-10.4-25.6-16.2-41-16.2H105.8C73.7-0.4,47.5,24.6,47.5,55.3v400.5c0,30.7,26.2,55.7,58.4,55.7
		h293.2c32.2,0,58.4-25,58.4-55.7V136.1C457.5,121.3,451.2,106.9,440.2,96.4z M327.2,59.4l67.1,63.5h-67.1V59.4z M405.9,455.8
		c0,3.2-3.1,5.9-6.8,5.9H105.9c-3.7,0-6.8-2.7-6.8-5.9V55.3c0-3.2,3.1-5.9,6.8-5.9h169.7V140c0,18,15.2,32.6,33.9,32.6h96.4V455.8z"
		/>
	<path d="M255.6,249.5c4.3-18,12-47.2,6.4-64.9c-4.4-28.1-39.7-24.7-44.6-6.8c-5,18.3-0.3,44.4,8.4,77.8
		c-11.9,28.4-29.7,66.9-42.1,88.6c-20.8,10.7-54.1,29.3-58.8,52.4c-3.5,16.8,22.9,39.4,53.1,6.4c9.1-9.9,19.3-24.8,31.3-45.5
		c26.7-8.8,56.1-19.8,82-24c21.9,12,47.6,19.9,64.6,19.9c27.7,0.1,28.9-30.2,18.5-40.6c-13.5-13.3-55-9.2-73.7-6.7
		C279.5,293.3,265.5,275.7,255.6,249.5z M145.2,401.8c5.9-15.9,28.6-34.4,35.5-40.8C158.6,396.3,145.2,402.5,145.2,401.8z
		 M240.4,179.5c8.7,0,7.8,37.5,2.1,47.6C237.3,210.8,237.5,179.5,240.4,179.5z M212,338.8c11.3-19.8,21-43.2,28.8-63.7
		c9.7,17.7,22.1,31.7,35.1,41.5C251.6,321.3,230.5,331.7,212,338.8z M365.4,332.9c0,0-5.8,7-43.5-9.1
		C362.9,320.8,369.6,330.2,365.4,332.9z"/>
</g>
</svg>
