<svg xmlns="http://www.w3.org/2000/svg" viewBox="0 0 512 512"><path d="M257.7,12c-7.1-0.2-14.1,0.7-20.8,2.5c-18,4.8-34.3,16.5-44.3,33.9L26.2,336l0,0c-0.6,1.1-1,2.3-1.1,3.5L12,490.8
	c-0.2,2.5,0.7,5,2.5,6.7c1.8,1.8,4.3,2.6,6.8,2.4h175.5c0.3,0,0.5,0,0.8,0h149.8h0c2.3,0.1,4.5-0.8,6.1-2.4c1.6-1.6,2.5-3.8,2.5-6
	c0-2.3-0.9-4.4-2.5-6c-1.6-1.6-3.8-2.4-6.1-2.4h-300l102.8-71.6c1-0.7,1.9-1.6,2.5-2.7l166.4-287.6c20.1-34.8,8.2-79.4-26.7-99.5
	C281.3,15.5,269.5,12.3,257.7,12L257.7,12z M257.2,28.8c9,0.3,18.2,2.7,26.7,7.6c27.1,15.6,36.2,49.5,20.6,76.5l-2.2,3.7l-97.2-56
	l2.1-3.7c7.8-13.5,20.2-22.5,34-26.2C246.4,29.3,251.8,28.6,257.2,28.8L257.2,28.8z M196.6,75.1l97.2,56l-14.6,25.2l-97.2-56
	L196.6,75.1z M173.6,114.8l41.3,23.8L86.3,360.9L45,337.1L173.6,114.8z M229.5,147l41.4,23.8L142.2,393.1l-41.3-23.8L229.5,147z
	 M40.7,354.1l88.9,51.2l-99.2,69.2L40.7,354.1z M413.4,483.1L413.4,483.1c-4.6,0.3-8,4.3-7.8,8.8c0.2,4.6,4.1,8.1,8.7,8h77.1
	c2.3,0.1,4.5-0.8,6.1-2.4c1.6-1.6,2.5-3.8,2.5-6c0-2.3-0.9-4.4-2.5-6c-1.6-1.6-3.8-2.4-6.1-2.4h-77.1
	C414,483.1,413.7,483.1,413.4,483.1L413.4,483.1z"/>
</svg>
