<svg xmlns="http://www.w3.org/2000/svg" viewBox="0 0 512 512"><g>
	<path d="M499.8,137.9c0-0.1,0-0.1,0-0.2c-0.1-0.5-0.3-0.9-0.7-1.3c0,0,0,0,0,0c0,0,0,0,0,0c-0.1-0.1-0.2-0.2-0.3-0.3
		c-0.3-0.3-0.5-0.5-0.9-0.7c-0.2-0.1-0.3-0.1-0.5-0.2c-0.3-0.1-0.6-0.2-1-0.2c-0.1,0-0.1,0-0.2,0l-357.2,0c-0.4,0-0.7,0.1-1.1,0.2
		c-0.1,0-0.1,0-0.2,0c-0.4,0.2-0.8,0.4-1.2,0.7c0,0-0.1,0-0.1,0c-0.1,0.1-0.1,0.2-0.2,0.3c-0.2,0.2-0.4,0.5-0.6,0.8
		c-0.1,0.2-0.1,0.4-0.2,0.5c-0.1,0.2-0.1,0.3-0.2,0.5L93.1,372.6c0,0,0,0,0,0c-0.1,0.5-0.1,1,0.1,1.5c0,0.1,0.1,0.3,0.2,0.4
		c0.1,0.3,0.2,0.6,0.4,0.9c0,0,0.1,0,0.1,0.1c0,0,0,0.1,0.1,0.1c0.2,0.3,0.6,0.5,0.9,0.7c0.1,0.1,0.2,0.2,0.4,0.3
		c0.5,0.2,1.1,0.4,1.6,0.4H454c0.5,0,0.9-0.1,1.4-0.3c0.1,0,0.2-0.1,0.3-0.2c0.3-0.2,0.6-0.3,0.9-0.6c0,0,0.1-0.1,0.1-0.1
		c0.1-0.1,0.1-0.2,0.2-0.3c0.2-0.2,0.3-0.5,0.5-0.7c0.1-0.2,0.2-0.4,0.2-0.6c0-0.1,0.1-0.2,0.1-0.4l42.1-234.5c0,0,0-0.1,0-0.1
		C499.9,138.8,499.9,138.4,499.8,137.9L499.8,137.9z M451.6,365.7L345.4,262.4l145.3-114.5L451.6,365.7z M141.3,146.8l104.4,112.7
		L102.1,364.7L141.3,146.8z M313.6,277.9c-13.5,10.5-30.8,10.7-40.3,0.4l-18.9-20.4c0,0,0-0.1-0.1-0.2c-0.1-0.2-0.3-0.3-0.5-0.4
		L147.5,142.5h337.8L313.6,277.9z M250.8,265l17,18.4c6.1,6.7,14.7,10,23.8,10c8.9,0,18.4-3.2,26.6-9.6l21.2-16.7l105.3,102.5H108.2
		L250.8,265z"/>
	<path d="M116.1,193.7c0-2.1-1.7-3.8-3.8-3.8H52.4c-2.1,0-3.8,1.7-3.8,3.8s1.7,3.8,3.8,3.8h59.9
		C114.4,197.5,116.1,195.8,116.1,193.7L116.1,193.7z"/>
	<path d="M30.4,190H15.9c-2.1,0-3.8,1.7-3.8,3.8s1.7,3.8,3.8,3.8h14.5c2.1,0,3.8-1.7,3.8-3.8S32.4,190,30.4,190z"/>
	<path d="M47.7,252.2c-2.1,0-3.8,1.7-3.8,3.8c0,2.1,1.7,3.8,3.8,3.8H100c2.1,0,3.8-1.7,3.8-3.8c0-2.1-1.7-3.8-3.8-3.8H47.7z"/>
	<path d="M28.5,252.2H15.9c-2.1,0-3.8,1.7-3.8,3.8c0,2.1,1.7,3.8,3.8,3.8h12.6c2.1,0,3.8-1.7,3.8-3.8
		C32.3,253.9,30.6,252.2,28.5,252.2L28.5,252.2z"/>
	<path d="M82.4,314.5H41.1c-2.1,0-3.8,1.7-3.8,3.8s1.7,3.8,3.8,3.8h41.3c2.1,0,3.8-1.7,3.8-3.8C86.1,316.2,84.5,314.5,82.4,314.5
		L82.4,314.5z"/>
	<path d="M25.9,314.5h-10c-2.1,0-3.8,1.7-3.8,3.8s1.7,3.8,3.8,3.8h10c2.1,0,3.8-1.7,3.8-3.8S27.9,314.5,25.9,314.5z"/>
</g>
</svg>
