<svg xmlns="http://www.w3.org/2000/svg" viewBox="0 0 512 512"><g>
	<path d="M256.1,421.6C256.1,421.6,256.2,421.6,256.1,421.6c0.4,0,0.8,0,1.1-0.1L443,370.8c1.6-0.4,2.8-1.9,2.8-3.7V223.9l50.2-16
		c1.2-0.4,2.2-1.4,2.5-2.6c0.3-1.2,0-2.6-0.9-3.5l-52.8-58.3c-0.1-0.1-0.2-0.2-0.3-0.3c-0.1-0.1-0.2-0.2-0.3-0.2
		c-0.4-0.3-0.7-0.5-1.2-0.6c0,0,0,0,0,0L257.2,90.6c-0.7-0.2-1.4-0.2-2,0L70.1,142.3c0,0,0,0,0,0c-0.4,0.1-0.8,0.3-1.2,0.6
		c-0.1,0.1-0.2,0.2-0.3,0.2c-0.1,0.1-0.2,0.2-0.3,0.3l-53.9,59.4c-0.9,1-1.2,2.3-0.9,3.5c0.3,1.2,1.3,2.2,2.5,2.6l51.3,16v140
		c0,1.7,1.1,3.2,2.7,3.6l185.1,52.8C255.5,421.5,255.8,421.6,256.1,421.6L256.1,421.6z M488.1,202.5l-174.7,55.8l-50.4-59.6
		l177.8-48.5L488.1,202.5z M260,99.2l167.7,46.7L260,191.6V99.2z M260,206.9l49.2,58.1c0.7,0.9,1.8,1.3,2.9,1.3
		c0.4,0,0.8-0.1,1.2-0.2l124.9-39.9v138L260,412.8L260,206.9z M23.9,203.5l48.4-53.3l177.2,48.5l-49.8,59.6L23.9,203.5z
		 M252.4,412.8L74.9,362.1V227.3l125,38.9c0.4,0.1,0.7,0.2,1.1,0.2c1.1,0,2.2-0.5,2.9-1.4l48.6-58L252.4,412.8z M252.4,191.6
		L85.3,145.9l167.1-46.7V191.6z"/>
</g>
</svg>
