<svg xmlns="http://www.w3.org/2000/svg" viewBox="0 0 512 512">
<path d="M293.3,256L470.5,78.7c5-5,7.8-11.6,7.8-18.6c0-7.1-2.8-13.8-7.8-18.6c-10.3-10.3-27-10.3-37.3,0L256,218.7L78.7,41.5
	c-5-5-11.6-7.8-18.6-7.8c-7.1,0-13.8,2.8-18.6,7.8c-5,5-7.8,11.6-7.8,18.6c0,7.1,2.8,13.8,7.8,18.6L218.7,256L41.5,433.3
	c-5,5-7.8,11.6-7.8,18.6c0,7.1,2.8,13.8,7.8,18.6c5,5,11.6,7.8,18.6,7.8c7.1,0,13.8-2.8,18.6-7.8L256,293.3l177.3,177.3
	c5,5,11.6,7.8,18.6,7.8c7.1,0,13.8-2.8,18.6-7.8c5-5,7.8-11.6,7.8-18.6c0-7.1-2.8-13.8-7.8-18.6L293.3,256z"/>
</svg>
